<?xml version="1.0" encoding="utf-8"?>
<!-- Generator: Adobe Illustrator 16.0.0, SVG Export Plug-In . SVG Version: 6.00 Build 0)  -->
<!DOCTYPE svg PUBLIC "-//W3C//DTD SVG 1.1//EN" "http://www.w3.org/Graphics/SVG/1.1/DTD/svg11.dtd">
<svg version="1.1" id="Layer_1" xmlns="http://www.w3.org/2000/svg" xmlns:xlink="http://www.w3.org/1999/xlink" x="0px" y="0px"
	 width="1920px" height="1920px" viewBox="0 0 1920 1920" enable-background="new 0 0 1920 1920" xml:space="preserve">
<g display="none">
	<g display="inline">
		<path fill="#24B49A" d="M1545.461,1577.738H366.827c-9.16,0-16.563-7.402-16.563-16.56V397.227c0-9.1,7.402-16.494,16.563-16.494
			h1178.634c9.154,0,16.557,7.395,16.557,16.494v1163.952C1562.018,1570.336,1554.615,1577.738,1545.461,1577.738z
			 M383.313,1544.677h1145.631V413.729H383.313V1544.677z"/>
	</g>
	<path display="inline" fill="#24B49A" d="M956.172,688.259h-445.38c-9.116,0-16.519-7.398-16.519-16.498
		c0-9.161,7.402-16.498,16.519-16.498h445.38c9.152,0,16.509,7.337,16.509,16.498C972.681,680.86,965.324,688.259,956.172,688.259z"
		/>
	<path display="inline" fill="#24B49A" d="M1385.909,836.876H510.792c-9.116,0-16.519-7.398-16.519-16.503
		c0-9.157,7.402-16.551,16.519-16.551h875.117c9.107,0,16.51,7.395,16.51,16.551
		C1402.419,829.478,1395.017,836.876,1385.909,836.876z"/>
	<path display="inline" fill="#24B49A" d="M956.172,985.493h-445.38c-9.116,0-16.519-7.398-16.519-16.56
		c0-9.103,7.402-16.501,16.519-16.501h445.38c9.152,0,16.509,7.398,16.509,16.501C972.681,978.095,965.324,985.493,956.172,985.493z
		"/>
	<path display="inline" fill="#24B49A" d="M956.172,1282.663h-445.38c-9.116,0-16.519-7.395-16.519-16.495
		c0-9.108,7.402-16.501,16.519-16.501h445.38c9.152,0,16.509,7.394,16.509,16.501
		C972.681,1275.269,965.324,1282.663,956.172,1282.663z"/>
	<path display="inline" fill="#24B49A" d="M1385.909,1134.053H510.792c-9.116,0-16.519-7.341-16.519-16.502
		c0-9.108,7.402-16.502,16.519-16.502h875.117c9.107,0,16.51,7.394,16.51,16.502
		C1402.419,1126.712,1395.017,1134.053,1385.909,1134.053z"/>
</g>
<g display="none">
	<path display="inline" fill="#24B49A" d="M1636.993,332.601H283.052c-10.662,0-19.35,8.683-19.35,19.368
		c0,10.716,8.688,19.395,19.35,19.395h632.997v130.491H426.689c-10.741,0-19.431,8.678-19.431,19.399v697.573
		c0,10.685,8.689,19.368,19.431,19.368l467.864,2.502l-323.806,313.393c-7.757,7.45-7.884,19.735-0.464,27.417
		c3.797,3.94,8.865,5.872,13.889,5.872c4.854,0,9.742-1.802,13.486-5.408l318.39-308.149v294.193
		c0,10.686,8.687,19.364,19.376,19.364c10.744,0,19.431-8.679,19.431-19.364v-294.828l325.764,308.887
		c7.731,7.378,20.003,7.043,27.375-0.701c7.393-7.78,7.071-20.033-0.688-27.412L976.88,1240.696l408.828-2.435h97.11
		c10.671,0,19.439-8.684,19.439-19.369v-697.64c0-10.721-8.769-19.399-19.439-19.399H954.855V371.364h682.138
		c10.617,0,19.305-8.679,19.305-19.395C1656.298,341.284,1647.61,332.601,1636.993,332.601z M1463.439,540.618v658.907h-67.434
		c0,0-0.215-0.063-0.349-0.063h-72.978l-173.821-338.235c-2.878-5.542-8.168-9.385-14.371-10.319
		c-6.15-0.965-12.353,1.104-16.679,5.542l-160.681,162.908L624.571,684.395c-7.615-7.543-19.913-7.616-27.467-0.067
		c-7.604,7.548-7.604,19.833-0.052,27.381l346.371,348.853c3.675,3.673,8.554,5.711,13.756,5.711h0.091
		c5.147,0,10.08-2.104,13.746-5.778l155.605-157.769l152.434,296.737H446.067V540.618H1463.439z"/>
</g>
<g display="none">
	<path display="inline" fill="#24B49A" d="M959.955,1644.707c-361.724,0-655.992-294.361-655.992-656.115
		c0-361.689,294.269-655.991,655.992-655.991c361.78,0,656.083,294.302,656.083,655.991
		C1616.038,1350.346,1321.735,1644.707,959.955,1644.707z M959.955,368.201c-342.082,0-620.391,278.342-620.391,620.391
		c0,342.114,278.309,620.454,620.391,620.454c342.174,0,620.455-278.34,620.455-620.454
		C1580.41,646.543,1302.129,368.201,959.955,368.201z"/>
	<path display="inline" fill="#24B49A" d="M959.955,1386.435c-9.821,0-17.802-7.979-17.802-17.799V617.573
		c0-9.883,7.98-17.798,17.802-17.798c9.878,0,17.86,7.915,17.86,17.798v751.063C977.815,1378.455,969.833,1386.435,959.955,1386.435
		z"/>
	<path display="inline" fill="#24B49A" d="M1335.519,1010.873H584.455c-9.821,0-17.802-7.978-17.802-17.798
		s7.98-17.801,17.802-17.801h751.063c9.82,0,17.795,7.981,17.795,17.801S1345.339,1010.873,1335.519,1010.873z"/>
</g>
<g display="none">
	<g display="inline">
		<path fill="#F9F9F9" d="M958.661,1571.882c-327.123,0-593.254-266.129-593.254-593.252s266.131-593.197,593.254-593.197
			s593.254,266.073,593.254,593.197S1285.784,1571.882,958.661,1571.882z M958.661,417.625
			c-309.363,0-561.005,251.642-561.005,561.005c0,309.363,251.642,561.061,561.005,561.061s561.005-251.698,561.005-561.061
			C1519.666,669.266,1268.024,417.625,958.661,417.625z"/>
	</g>
	<polygon display="inline" fill="#F9F9F9" points="1385.574,1367.138 942.563,986.066 942.563,401.529 974.755,401.529 
		974.755,971.247 1406.611,1342.774 	"/>
	<rect x="958.661" y="962.536" display="inline" fill="#F9F9F9" width="577.099" height="32.19"/>
</g>
<path display="none" fill="#24B49A" d="M518.669,1565.914h919.364c11.192,0,20.284-9.096,20.284-20.32V652.767
	c0-5.523-2.238-10.768-6.227-14.615l-255.929-246.772h-0.068l-0.209-0.278c-0.908-0.841-2.027-1.258-3.008-1.96
	c-1.119-0.735-2.1-1.643-3.356-2.165c-2.45-0.98-5.042-1.543-7.696-1.543H518.669c-11.19,0-20.29,9.092-20.29,20.284v1139.877
	C498.379,1556.818,507.479,1565.914,518.669,1565.914z M1202.107,453.495l185.639,178.988h-185.639V453.495z M539.019,426.006
	h622.45v226.761c0,11.19,9.094,20.283,20.355,20.283h235.926v852.223H539.019V426.006z"/>
<g display="none">
	<path display="inline" fill="#24B49A" d="M1295.63,695.744H427.858c-10.554,0-19.108-8.57-19.108-19.116
		s8.555-19.116,19.108-19.116h867.771c10.555,0,19.109,8.57,19.109,19.116S1306.185,695.744,1295.63,695.744z"/>
	<path display="inline" fill="#24B49A" d="M1295.63,1041.605H427.858c-10.554,0-19.108-8.57-19.108-19.182
		c0-10.547,8.555-19.117,19.108-19.117h867.771c10.555,0,19.109,8.57,19.109,19.117
		C1314.739,1033.035,1306.185,1041.605,1295.63,1041.605z"/>
	<path display="inline" fill="#24B49A" d="M1295.63,1387.466H427.858c-10.554,0-19.108-8.569-19.108-19.116
		c0-10.613,8.555-19.182,19.108-19.182h867.771c10.555,0,19.109,8.568,19.109,19.182
		C1314.739,1378.896,1306.185,1387.466,1295.63,1387.466z"/>
	<path display="inline" fill="#24B49A" d="M1528.787,1041.605h-50.154c-10.611,0-19.138-8.57-19.138-19.182
		c0-10.547,8.526-19.117,19.138-19.117h50.154c10.611,0,19.168,8.57,19.168,19.117
		C1547.955,1033.035,1539.398,1041.605,1528.787,1041.605z"/>
	<path display="inline" fill="#24B49A" d="M1528.787,695.744h-50.154c-10.611,0-19.138-8.57-19.138-19.116
		s8.526-19.116,19.138-19.116h50.154c10.611,0,19.168,8.57,19.168,19.116S1539.398,695.744,1528.787,695.744z"/>
	<path display="inline" fill="#24B49A" d="M1528.787,1387.466h-50.154c-10.611,0-19.138-8.569-19.138-19.116
		c0-10.613,8.526-19.182,19.138-19.182h50.154c10.611,0,19.168,8.568,19.168,19.182
		C1547.955,1378.896,1539.398,1387.466,1528.787,1387.466z"/>
</g>
<g display="none">
	<g display="inline">
		<path fill="#24B49A" d="M978.376,1338.189c-171.97,0-311.844-139.913-311.844-311.826c0-171.942,139.874-311.825,311.844-311.825
			c171.91,0,311.797,139.883,311.797,311.825C1290.173,1198.276,1150.286,1338.189,978.376,1338.189z M978.376,731.458
			c-162.61,0-294.905,132.297-294.905,294.904c0,162.607,132.295,294.878,294.905,294.878
			c162.575,0,294.876-132.271,294.876-294.878C1273.252,863.756,1140.951,731.458,978.376,731.458z"/>
	</g>
	<path display="inline" fill="#24B49A" d="M881.012,1127.299c-2.228,0-4.479-0.904-6.139-2.653
		c-3.237-3.386-3.097-8.753,0.308-11.961l75.425-71.648c3.381-3.208,8.744-3.063,11.959,0.323c3.208,3.383,3.096,8.75-0.318,11.961
		l-75.414,71.645C885.201,1126.513,883.097,1127.299,881.012,1127.299z"/>
	<path display="inline" fill="#24B49A" d="M978.376,1004.892c-4.697,0-8.46-3.793-8.46-8.46V801.707c0-4.668,3.763-8.461,8.46-8.461
		c4.667,0,8.461,3.793,8.461,8.461v194.725C986.837,1001.099,983.043,1004.892,978.376,1004.892z"/>
	<path display="inline" fill="#24B49A" d="M978.376,1060.233c-18.7,0-33.866-15.2-33.866-33.871c0-18.669,15.166-33.87,33.866-33.87
		c18.67,0,33.844,15.2,33.844,33.87C1012.22,1045.034,997.046,1060.233,978.376,1060.233z M978.376,1009.415
		c-9.335,0-16.944,7.613-16.944,16.948c0,9.335,7.609,16.919,16.944,16.919s16.921-7.583,16.921-16.919
		C995.297,1017.028,987.711,1009.415,978.376,1009.415z"/>
</g>
<g>
	<path fill="#24B49A" d="M983.721,967.908c-158.976,0-288.266-129.29-288.266-288.264c0-158.918,129.29-288.208,288.266-288.208
		c158.92,0,288.265,129.29,288.265,288.208C1271.985,838.618,1142.641,967.908,983.721,967.908z M983.721,423.983
		c-141.017,0-255.717,114.699-255.717,255.661c0,141.018,114.7,255.716,255.717,255.716c141.016,0,255.66-114.699,255.66-255.716
		C1239.381,538.683,1124.736,423.983,983.721,423.983z"/>
	<path fill="#24B49A" d="M1133.829,1566.153H636.872c-8.979,0-16.274-7.239-16.274-16.273v-244.438
		c0-204.035,165.988-370.081,370.082-370.081c140.566,0,267.277,78.058,330.629,203.643c4.041,8.081,0.842,17.846-7.238,21.884
		c-8.082,4.041-17.844,0.842-21.828-7.181c-57.799-114.589-173.341-185.798-301.563-185.798
		c-186.134,0-337.535,151.455-337.535,337.533v228.165h480.685c8.979,0,16.272,7.294,16.272,16.273
		C1150.102,1558.914,1142.808,1566.153,1133.829,1566.153z"/>
	<g>
		<path fill="#24B49A" d="M1488.028,1422.609h-287.085c-8.98,0-16.275-7.294-16.275-16.272s7.295-16.273,16.275-16.273h287.085
			c8.978,0,16.272,7.295,16.272,16.273S1497.006,1422.609,1488.028,1422.609z"/>
		<path fill="#24B49A" d="M1344.486,1566.153c-8.979,0-16.276-7.239-16.276-16.273v-287.086c0-8.978,7.298-16.274,16.276-16.274
			c8.978,0,16.271,7.296,16.271,16.274v287.086C1360.758,1558.914,1353.464,1566.153,1344.486,1566.153z"/>
	</g>
</g>
</svg>
