<?xml version="1.0" encoding="utf-8"?>
<!-- Generator: Adobe Illustrator 16.0.0, SVG Export Plug-In . SVG Version: 6.00 Build 0)  -->
<!DOCTYPE svg PUBLIC "-//W3C//DTD SVG 1.1//EN" "http://www.w3.org/Graphics/SVG/1.1/DTD/svg11.dtd">
<svg version="1.1" id="Layer_1" xmlns="http://www.w3.org/2000/svg" xmlns:xlink="http://www.w3.org/1999/xlink" x="0px" y="0px"
	 width="1920px" height="1920px" viewBox="0 0 1920 1920" enable-background="new 0 0 1920 1920" xml:space="preserve">
<g display="none">
	<g display="inline">
		<path fill="#24B49A" d="M1545.461,1577.738H366.827c-9.16,0-16.563-7.402-16.563-16.56V397.227c0-9.1,7.402-16.494,16.563-16.494
			h1178.634c9.154,0,16.557,7.395,16.557,16.494v1163.952C1562.018,1570.336,1554.615,1577.738,1545.461,1577.738z
			 M383.313,1544.677h1145.631V413.729H383.313V1544.677z"/>
	</g>
	<path display="inline" fill="#24B49A" d="M956.172,688.259h-445.38c-9.116,0-16.519-7.398-16.519-16.498
		c0-9.161,7.402-16.498,16.519-16.498h445.38c9.152,0,16.509,7.337,16.509,16.498C972.681,680.86,965.324,688.259,956.172,688.259z"
		/>
	<path display="inline" fill="#24B49A" d="M1385.909,836.876H510.792c-9.116,0-16.519-7.398-16.519-16.503
		c0-9.157,7.402-16.551,16.519-16.551h875.117c9.107,0,16.51,7.395,16.51,16.551
		C1402.419,829.478,1395.017,836.876,1385.909,836.876z"/>
	<path display="inline" fill="#24B49A" d="M956.172,985.493h-445.38c-9.116,0-16.519-7.398-16.519-16.56
		c0-9.103,7.402-16.501,16.519-16.501h445.38c9.152,0,16.509,7.398,16.509,16.501C972.681,978.095,965.324,985.493,956.172,985.493z
		"/>
	<path display="inline" fill="#24B49A" d="M956.172,1282.663h-445.38c-9.116,0-16.519-7.395-16.519-16.495
		c0-9.108,7.402-16.501,16.519-16.501h445.38c9.152,0,16.509,7.394,16.509,16.501
		C972.681,1275.269,965.324,1282.663,956.172,1282.663z"/>
	<path display="inline" fill="#24B49A" d="M1385.909,1134.053H510.792c-9.116,0-16.519-7.341-16.519-16.502
		c0-9.108,7.402-16.502,16.519-16.502h875.117c9.107,0,16.51,7.394,16.51,16.502
		C1402.419,1126.712,1395.017,1134.053,1385.909,1134.053z"/>
</g>
<g display="none">
	<path display="inline" fill="#24B49A" d="M1636.993,332.601H283.052c-10.662,0-19.35,8.683-19.35,19.368
		c0,10.716,8.688,19.395,19.35,19.395h632.997v130.491H426.689c-10.741,0-19.431,8.678-19.431,19.399v697.573
		c0,10.685,8.689,19.368,19.431,19.368l467.864,2.502l-323.806,313.393c-7.757,7.45-7.884,19.735-0.464,27.417
		c3.797,3.94,8.865,5.872,13.889,5.872c4.854,0,9.742-1.802,13.486-5.408l318.39-308.149v294.193
		c0,10.686,8.687,19.364,19.376,19.364c10.744,0,19.431-8.679,19.431-19.364v-294.828l325.764,308.887
		c7.731,7.378,20.003,7.043,27.375-0.701c7.393-7.78,7.071-20.033-0.688-27.412L976.88,1240.696l408.828-2.435h97.11
		c10.671,0,19.439-8.684,19.439-19.369v-697.64c0-10.721-8.769-19.399-19.439-19.399H954.855V371.364h682.138
		c10.617,0,19.305-8.679,19.305-19.395C1656.298,341.284,1647.61,332.601,1636.993,332.601z M1463.439,540.618v658.907h-67.434
		c0,0-0.215-0.063-0.349-0.063h-72.978l-173.821-338.235c-2.878-5.542-8.168-9.385-14.371-10.319
		c-6.15-0.965-12.353,1.104-16.679,5.542l-160.681,162.908L624.571,684.395c-7.615-7.543-19.913-7.616-27.467-0.067
		c-7.604,7.548-7.604,19.833-0.052,27.381l346.371,348.853c3.675,3.673,8.554,5.711,13.756,5.711h0.091
		c5.147,0,10.08-2.104,13.746-5.778l155.605-157.769l152.434,296.737H446.067V540.618H1463.439z"/>
</g>
<g display="none">
	<path display="inline" fill="#24B49A" d="M959.955,1644.707c-361.724,0-655.992-294.361-655.992-656.115
		c0-361.689,294.269-655.991,655.992-655.991c361.78,0,656.083,294.302,656.083,655.991
		C1616.038,1350.346,1321.735,1644.707,959.955,1644.707z M959.955,368.201c-342.082,0-620.391,278.342-620.391,620.391
		c0,342.114,278.309,620.454,620.391,620.454c342.174,0,620.455-278.34,620.455-620.454
		C1580.41,646.543,1302.129,368.201,959.955,368.201z"/>
	<path display="inline" fill="#24B49A" d="M959.955,1386.435c-9.821,0-17.802-7.979-17.802-17.799V617.573
		c0-9.883,7.98-17.798,17.802-17.798c9.878,0,17.86,7.915,17.86,17.798v751.063C977.815,1378.455,969.833,1386.435,959.955,1386.435
		z"/>
	<path display="inline" fill="#24B49A" d="M1335.519,1010.873H584.455c-9.821,0-17.802-7.978-17.802-17.798
		s7.98-17.801,17.802-17.801h751.063c9.82,0,17.795,7.981,17.795,17.801S1345.339,1010.873,1335.519,1010.873z"/>
</g>
<g display="none">
	<g display="inline">
		<path fill="#F9F9F9" d="M958.661,1571.882c-327.123,0-593.254-266.129-593.254-593.252s266.131-593.197,593.254-593.197
			s593.254,266.073,593.254,593.197S1285.784,1571.882,958.661,1571.882z M958.661,417.625
			c-309.363,0-561.005,251.642-561.005,561.005c0,309.363,251.642,561.061,561.005,561.061s561.005-251.698,561.005-561.061
			C1519.666,669.266,1268.024,417.625,958.661,417.625z"/>
	</g>
	<polygon display="inline" fill="#F9F9F9" points="1385.574,1367.138 942.563,986.066 942.563,401.529 974.755,401.529 
		974.755,971.247 1406.611,1342.774 	"/>
	<rect x="958.661" y="962.536" display="inline" fill="#F9F9F9" width="577.099" height="32.19"/>
</g>
<path display="none" fill="#24B49A" d="M518.669,1565.914h919.364c11.192,0,20.284-9.096,20.284-20.32V652.767
	c0-5.523-2.238-10.768-6.227-14.615l-255.929-246.772h-0.068l-0.209-0.278c-0.908-0.841-2.027-1.258-3.008-1.96
	c-1.119-0.735-2.1-1.643-3.356-2.165c-2.45-0.98-5.042-1.543-7.696-1.543H518.669c-11.19,0-20.29,9.092-20.29,20.284v1139.877
	C498.379,1556.818,507.479,1565.914,518.669,1565.914z M1202.107,453.495l185.639,178.988h-185.639V453.495z M539.019,426.006
	h622.45v226.761c0,11.19,9.094,20.283,20.355,20.283h235.926v852.223H539.019V426.006z"/>
<g display="none">
	<path display="inline" fill="#24B49A" d="M1295.63,695.744H427.858c-10.554,0-19.108-8.57-19.108-19.116
		s8.555-19.116,19.108-19.116h867.771c10.555,0,19.109,8.57,19.109,19.116S1306.185,695.744,1295.63,695.744z"/>
	<path display="inline" fill="#24B49A" d="M1295.63,1041.605H427.858c-10.554,0-19.108-8.57-19.108-19.182
		c0-10.547,8.555-19.117,19.108-19.117h867.771c10.555,0,19.109,8.57,19.109,19.117
		C1314.739,1033.035,1306.185,1041.605,1295.63,1041.605z"/>
	<path display="inline" fill="#24B49A" d="M1295.63,1387.466H427.858c-10.554,0-19.108-8.569-19.108-19.116
		c0-10.613,8.555-19.182,19.108-19.182h867.771c10.555,0,19.109,8.568,19.109,19.182
		C1314.739,1378.896,1306.185,1387.466,1295.63,1387.466z"/>
	<path display="inline" fill="#24B49A" d="M1528.787,1041.605h-50.154c-10.611,0-19.138-8.57-19.138-19.182
		c0-10.547,8.526-19.117,19.138-19.117h50.154c10.611,0,19.168,8.57,19.168,19.117
		C1547.955,1033.035,1539.398,1041.605,1528.787,1041.605z"/>
	<path display="inline" fill="#24B49A" d="M1528.787,695.744h-50.154c-10.611,0-19.138-8.57-19.138-19.116
		s8.526-19.116,19.138-19.116h50.154c10.611,0,19.168,8.57,19.168,19.116S1539.398,695.744,1528.787,695.744z"/>
	<path display="inline" fill="#24B49A" d="M1528.787,1387.466h-50.154c-10.611,0-19.138-8.569-19.138-19.116
		c0-10.613,8.526-19.182,19.138-19.182h50.154c10.611,0,19.168,8.568,19.168,19.182
		C1547.955,1378.896,1539.398,1387.466,1528.787,1387.466z"/>
</g>
<g display="none">
	<g display="inline">
		<path fill="#24B49A" d="M978.376,1338.189c-171.97,0-311.844-139.913-311.844-311.826c0-171.942,139.874-311.825,311.844-311.825
			c171.91,0,311.797,139.883,311.797,311.825C1290.173,1198.276,1150.286,1338.189,978.376,1338.189z M978.376,731.458
			c-162.61,0-294.905,132.297-294.905,294.904c0,162.607,132.295,294.878,294.905,294.878
			c162.575,0,294.876-132.271,294.876-294.878C1273.252,863.756,1140.951,731.458,978.376,731.458z"/>
	</g>
	<path display="inline" fill="#24B49A" d="M881.012,1127.299c-2.228,0-4.479-0.904-6.139-2.653
		c-3.237-3.386-3.097-8.753,0.308-11.961l75.425-71.648c3.381-3.208,8.744-3.063,11.959,0.323c3.208,3.383,3.096,8.75-0.318,11.961
		l-75.414,71.645C885.201,1126.513,883.097,1127.299,881.012,1127.299z"/>
	<path display="inline" fill="#24B49A" d="M978.376,1004.892c-4.697,0-8.46-3.793-8.46-8.46V801.707c0-4.668,3.763-8.461,8.46-8.461
		c4.667,0,8.461,3.793,8.461,8.461v194.725C986.837,1001.099,983.043,1004.892,978.376,1004.892z"/>
	<path display="inline" fill="#24B49A" d="M978.376,1060.233c-18.7,0-33.866-15.2-33.866-33.871c0-18.669,15.166-33.87,33.866-33.87
		c18.67,0,33.844,15.2,33.844,33.87C1012.22,1045.034,997.046,1060.233,978.376,1060.233z M978.376,1009.415
		c-9.335,0-16.944,7.613-16.944,16.948c0,9.335,7.609,16.919,16.944,16.919s16.921-7.583,16.921-16.919
		C995.297,1017.028,987.711,1009.415,978.376,1009.415z"/>
</g>
<g>
	<path fill="#24B49A" d="M884.471,1520.001h-87.824c-16.784,0-30.322-13.591-30.322-30.322v-37.904
		c0-14.403-8.94-27.129-22.208-31.623c-13.103-4.44-26.1-9.855-38.495-16.081c-12.021-6.011-26.701-3.521-36.559,6.28l-27.602,27.67
		c-11.435,11.479-31.418,11.425-42.898,0l-62.101-62.163c-11.751-11.805-11.751-31.08,0-42.885l27.993-27.94
		c9.751-9.748,12.23-24.368,6.28-36.388c-6.116-12.4-11.479-25.343-15.912-38.5c-4.343-13.159-16.904-21.984-31.148-21.984h-38.932
		c-16.679,0-30.321-13.593-30.321-30.324v-87.829c0-16.733,13.643-30.324,30.321-30.324h39.593c14.289,0,26.791-9.314,31.779-23.718
		c4.057-11.695,8.94-23.283,14.455-34.438c6.445-13.05,4.281-28.266-5.365-37.958l-28.743-28.699
		c-11.751-11.859-11.751-31.083,0-42.886l62.101-62.163c11.48-11.425,31.464-11.48,42.898,0l29.074,29.077
		c9.797,9.801,24.627,11.914,37.85,5.415c11.149-5.468,22.734-10.288,34.439-14.295c14.289-4.928,23.5-17.165,23.5-31.352v-40.502
		c0-16.733,13.538-30.324,30.322-30.324h87.824c16.679,0,30.322,13.591,30.322,30.324v40.502c0,14.187,9.211,26.424,23.5,31.352
		c11.705,4.062,23.289,8.827,34.438,14.295c13.223,6.499,28.053,4.386,37.805-5.415l29.075-29.077
		c11.479-11.425,31.463-11.425,42.883,0l62.115,62.163c5.74,5.686,8.881,13.32,8.881,21.443c0,8.069-3.141,15.704-8.881,21.443
		l-28.759,28.699c-9.632,9.692-11.75,24.908-5.364,37.958c5.529,11.1,10.398,22.688,14.516,34.438
		c4.988,14.404,17.43,23.718,31.733,23.718h39.577c16.739,0,30.322,13.591,30.322,30.324v87.829
		c0,16.731-13.583,30.324-30.322,30.324h-38.871c-14.244,0-26.805,8.826-31.133,21.93c-4.447,13.104-9.812,26.1-15.928,38.554
		c-6.07,12.02-3.471,26.64,6.281,36.388l27.947,27.94c5.74,5.739,8.881,13.32,8.881,21.441c0,8.123-3.141,15.704-8.881,21.443
		l-62.115,62.163c-11.42,11.425-31.404,11.479-42.883,0l-27.678-27.67c-9.736-9.801-24.417-12.291-36.498-6.28
		c-12.336,6.226-25.332,11.641-38.495,16.081c-13.268,4.494-22.147,17.22-22.147,31.623v37.904
		C914.793,1506.41,901.149,1520.001,884.471,1520.001z M691.813,1369.36c9.525,0,19.066,2.166,27.947,6.66
		c11.089,5.577,22.688,10.451,34.438,14.402c25.979,8.773,43.529,33.464,43.529,61.352v37.904l86.743-1.084l-1.082-36.82
		c0-27.888,17.43-52.578,43.545-61.352c11.75-4.006,23.274-8.825,34.424-14.402c24.16-12.184,53.4-7.31,72.889,12.13l27.617,27.615
		l60.539-62.108l-27.948-26.425c-19.323-19.277-24.251-48.518-12.291-72.613c5.59-11.154,10.353-22.743,14.305-34.493
		c8.655-25.938,33.132-43.373,60.974-43.373h37.79v-86.745l-38.496,1.082c-27.407,0-52.094-17.976-61.409-44.78
		c-3.682-10.56-8.069-20.902-12.998-30.812c-12.396-25.178-7.902-54.961,11.314-74.13l28.76-28.752l-62.162-60.538l-27.451,29.023
		c-19.113,19.168-48.894,23.717-73.911,11.426c-9.962-4.874-20.315-9.151-30.862-12.779c-26.701-9.205-44.627-33.734-44.627-61.08
		v-40.502l-86.742,1.082l1.081,39.421c0,27.346-17.971,51.875-44.671,61.08c-10.503,3.573-20.855,7.905-30.818,12.779
		c-25.123,12.346-54.798,7.688-73.955-11.426l-29.03-29.023l-60.538,62.109l28.699,27.181c19.217,19.169,23.71,48.952,11.374,74.077
		c-4.988,10.017-9.315,20.414-12.997,30.865c-9.316,26.804-34.003,44.78-61.455,44.78h-39.593l1.142,86.747l37.79-1.083
		c27.782,0,52.259,17.435,60.974,43.428c3.952,11.75,8.715,23.393,14.244,34.438c12.021,24.15,7.033,53.336-12.23,72.613
		l-27.947,27.995l62.056,60.538l26.1-27.615C659.161,1375.857,675.464,1369.36,691.813,1369.36z"/>
	<path fill="#24B49A" d="M840.566,1351.708c-120.056,0-217.737-97.738-217.737-217.786c0-120.102,97.682-217.786,217.737-217.786
		c120.039,0,217.721,97.685,217.721,217.786C1058.287,1253.97,960.605,1351.708,840.566,1351.708z M840.566,947.597
		c-102.775,0-186.334,83.604-186.334,186.325c0,102.719,83.559,186.325,186.334,186.325c102.715,0,186.317-83.606,186.317-186.325
		C1026.884,1031.201,943.281,947.597,840.566,947.597z"/>
	<path fill="#24B49A" d="M1379.01,893.609c-10.563,0-20.63-6.443-24.582-16.895l-8.384-22.2c-2.284-5.956-7.483-9.964-14.846-9.53
		c-8.55,0.325-17.22,0.108-25.724-0.704c-6.762-0.541-13.584,3.033-16.288,9.151l-9.421,20.956
		c-6.01,13.157-21.502,19.114-34.77,13.157l-48.848-22.038c-6.387-2.87-11.255-8.068-13.749-14.62s-2.269-13.7,0.601-20.089
		l9.422-20.956c2.75-6.118,1.187-13.482-3.952-18.248c-6.235-5.902-12.141-12.238-17.55-18.843
		c-4.223-5.09-10.999-7.04-16.949-4.765l-22.147,8.338c-6.611,2.492-13.704,2.274-20.149-0.595
		c-6.387-2.87-11.254-8.068-13.748-14.675l-18.947-50.087c-5.094-13.538,1.727-28.699,15.266-33.843l22.418-8.501
		c5.95-2.22,9.752-8.178,9.526-14.783c-0.315-8.61,0-17.274,0.812-25.666c0.661-6.878-2.975-13.321-8.926-16.029l-21.562-9.692
		c-13.208-5.957-19.052-21.552-13.103-34.709l21.982-48.896c5.965-13.159,21.502-19.115,34.77-13.159l21.877,9.909
		c6.011,2.654,13.208,1.137,17.866-3.845c5.8-6.118,12.021-11.913,18.526-17.273c5.139-4.169,7.137-11.046,4.869-17.002
		l-8.715-22.959c-2.495-6.499-2.285-13.646,0.586-20.035c2.869-6.444,8.129-11.318,14.619-13.809l50.156-18.951
		c6.596-2.492,13.688-2.275,20.029,0.595c6.445,2.87,11.374,8.068,13.868,14.674l8.76,23.23c2.284,5.901,8.129,9.691,14.785,9.53
		c8.505-0.271,16.949-0.055,25.288,0.758c6.656,0.704,13.058-2.87,15.702-8.772l10.067-22.472
		c5.965-13.212,21.562-19.114,34.77-13.158l48.848,22.039c6.387,2.87,11.254,8.068,13.749,14.62
		c2.494,6.551,2.269,13.699-0.601,20.089l-10.128,22.471c-2.645,5.903-1.127,12.942,3.802,17.544
		c6.115,5.74,11.915,11.913,17.324,18.41c4.223,5.144,11.044,7.04,16.889,4.819l23.29-8.826c6.491-2.491,13.703-2.22,20.089,0.65
		c6.387,2.87,11.314,8.068,13.809,14.62l18.947,50.141c2.494,6.498,2.284,13.646-0.646,20.035
		c-2.87,6.443-8.069,11.317-14.62,13.808l-22.959,8.718c-5.95,2.22-9.752,8.176-9.526,14.836c0.315,8.448,0.045,16.949-0.661,25.343
		c-0.646,6.822,2.93,13.211,8.939,15.92l21.938,9.855c13.148,5.956,19.053,21.55,13.104,34.764l-21.982,48.841l0,0
		c-2.931,6.39-8.129,11.264-14.681,13.754c-6.552,2.491-13.704,2.275-20.089-0.65l-21.502-9.638
		c-6.01-2.708-13.268-1.192-17.926,3.898c-5.74,6.174-12.065,12.075-18.723,17.544c-5.094,4.224-7.047,11.047-4.777,16.949
		l8.504,22.471c5.154,13.538-1.728,28.699-15.266,33.843l-50.096,18.952C1385.246,893.068,1382.105,893.609,1379.01,893.609z
		 M1331.845,813.578c19.383,0,36.723,11.804,43.544,29.836l6.551,17.328l40.449-15.324l-6.656-17.598
		c-6.986-18.573-1.307-39.583,14.185-52.308c5.575-4.603,10.878-9.584,15.747-14.782c13.869-14.945,35.521-19.386,53.837-11.155
		l16.783,7.582l17.761-39.421l-17.22-7.743c-18.196-8.177-29.135-27.238-27.302-47.434c0.602-7.04,0.767-14.188,0.541-21.281
		c-0.751-20.143,11.209-38.392,29.796-45.431l18.136-6.876l-15.326-40.449l-18.406,6.985c-18.526,6.985-39.532,1.3-52.319-14.187
		c-4.538-5.469-9.421-10.667-14.499-15.487c-14.785-13.809-19.174-35.25-11-53.39l7.965-17.762l-39.428-17.761l-7.949,17.707
		c-8.188,18.194-27.24,29.132-47.33,27.182c-7.047-0.703-14.244-0.92-21.231-0.65c-20.57,0.542-38.285-11.316-45.272-29.835
		l-6.972-18.41l-40.403,15.324l6.82,18.14c7.048,18.626,1.309,39.636-14.289,52.415c-5.469,4.495-10.729,9.369-15.536,14.512
		c-13.929,14.728-35.476,19.168-53.717,10.938l-17.175-7.743l-17.76,39.42l16.783,7.581c18.302,8.23,29.301,27.454,27.348,47.705
		c-0.707,7.04-0.917,14.295-0.707,21.605c0.707,19.981-11.254,38.175-29.781,45.214l-17.64,6.661l15.372,40.449l17.324-6.552
		c18.571-7.04,39.637-1.3,52.424,14.295c4.493,5.524,9.467,10.884,14.726,15.812c14.89,13.971,19.323,35.737,11.044,54.095
		l-7.258,16.19l39.428,17.76l7.258-16.19c8.339-18.357,27.496-29.457,47.855-27.508c7.152,0.65,14.41,0.867,21.668,0.542
		C1330.598,813.578,1331.198,813.578,1331.845,813.578z M1539.785,593.843h0.045H1539.785z M1223.99,443.364v0.054V443.364z"/>
	<path fill="#24B49A" d="M1323.896,770.909c-17.01,0-34.289-3.52-50.742-10.938c-30.217-13.645-53.387-38.229-65.092-69.203
		c-11.75-30.973-10.713-64.708,2.931-94.923c13.644-30.214,38.226-53.335,69.193-65.086c30.983-11.75,64.655-10.667,94.872,2.978
		c30.276,13.592,53.386,38.121,65.091,69.148c11.75,31.028,10.714,64.708-2.931,94.923
		C1416.544,743.672,1371.271,770.909,1323.896,770.909z M1324.166,554.097c-11.059,0-22.207,2.059-32.875,6.065
		c-23.125,8.773-41.472,26.046-51.658,48.572c-10.173,22.58-10.939,47.759-2.225,70.879c8.775,23.176,26.055,41.479,48.639,51.658
		c46.564,21.01,101.527,0.216,122.474-46.351c10.188-22.58,10.999-47.759,2.224-70.935c-8.715-23.121-25.994-41.478-48.578-51.657
		C1350.041,556.859,1337.104,554.097,1324.166,554.097z"/>
</g>
</svg>
