<?xml version="1.0" encoding="utf-8"?>
<!-- Generator: Adobe Illustrator 16.0.0, SVG Export Plug-In . SVG Version: 6.00 Build 0)  -->
<!DOCTYPE svg PUBLIC "-//W3C//DTD SVG 1.1//EN" "http://www.w3.org/Graphics/SVG/1.1/DTD/svg11.dtd">
<svg version="1.1" id="Layer_1" xmlns="http://www.w3.org/2000/svg" xmlns:xlink="http://www.w3.org/1999/xlink" x="0px" y="0px"
	 width="1920px" height="1080px" viewBox="0 0 1920 1080" enable-background="new 0 0 1920 1080" xml:space="preserve">
<rect x="31" y="5" fill="#F9F9F9" width="1850" height="1038"/>
<text transform="matrix(1 0 0 1 98.0698 703.457)" font-family="'Montserrat-Medium'" font-size="48.2068">Fonte primária: Montserrat(medium)</text>
<text transform="matrix(1 0 0 1 98.0698 759.3262)"><tspan x="0" y="0" font-family="'Montserrat-Medium'" font-size="48.2068">Fonte secundária: </tspan><tspan x="450.776" y="0" font-family="'Montserrat-Thin'" font-size="48.2068">Montserrat(thin)</tspan></text>
<rect x="86.07" y="796" fill="#4D4D4D" width="1556.93" height="230"/>
<g>
	<rect x="1142.855" y="827.83" fill="#24B49A" width="170.285" height="170.285"/>
	<rect x="972.569" y="827.83" fill="#1F2426" width="170.286" height="170.285"/>
	<rect x="802.284" y="827.83" fill="#252E2E" width="170.286" height="170.285"/>
	<rect x="461.712" y="827.83" fill="#B8BDC1" width="170.286" height="170.285"/>
	<rect x="631.998" y="827.83" fill="#565D5E" width="170.286" height="170.285"/>
	<rect x="291.426" y="827.83" fill="#F9F9F9" width="170.286" height="170.285"/>
	<rect x="121.141" y="827.83" fill="#FFFFFF" width="170.286" height="170.285"/>
</g>
<text transform="matrix(1 0 0 1 148.7822 921.0352)" font-family="'Montserrat-Medium'" font-size="30.0088">FFFFFF</text>
<text transform="matrix(1 0 0 1 319.4487 921.0352)" font-family="'Montserrat-Medium'" font-size="30.0088">F9F9F9</text>
<text transform="matrix(1 0 0 1 490.1152 921.0352)" font-family="'Montserrat-Medium'" font-size="30.0088">B8BDC1</text>
<text transform="matrix(1 0 0 1 661.1152 921.0352)" font-family="'Montserrat-Medium'" font-size="30.0088">565D5E</text>
<text transform="matrix(1 0 0 1 831.7822 921.0352)" fill="#FFFFFF" font-family="'Montserrat-Medium'" font-size="30.0088">252E2E</text>
<text transform="matrix(1 0 0 1 1001.9492 921.0352)" fill="#24B49A" font-family="'Montserrat-Medium'" font-size="30.0088">1F2426</text>
<text transform="matrix(1 0 0 1 1175.2832 921.0352)" font-family="'Montserrat-Medium'" font-size="30.0088">24B49A</text>
<g>
	<g>
		<path fill="#272525" d="M811.486,452.508H660.339c-1.174,0-2.124-0.949-2.124-2.124V301.12c0-1.167,0.949-2.115,2.124-2.115
			h151.147c1.174,0,2.124,0.948,2.124,2.115v149.265C813.609,451.559,812.66,452.508,811.486,452.508z M662.454,448.268h146.915
			V303.236H662.454V448.268z"/>
	</g>
	<path fill="#272525" d="M735.916,338.441H678.8c-1.168,0-2.118-0.949-2.118-2.116c0-1.175,0.949-2.116,2.118-2.116h57.115
		c1.174,0,2.117,0.941,2.117,2.116C738.033,337.493,737.089,338.441,735.916,338.441z"/>
	<path fill="#272525" d="M791.025,357.5H678.8c-1.168,0-2.118-0.949-2.118-2.116c0-1.174,0.949-2.123,2.118-2.123h112.225
		c1.168,0,2.118,0.948,2.118,2.123C793.143,356.551,792.194,357.5,791.025,357.5z"/>
	<path fill="#272525" d="M735.916,376.559H678.8c-1.168,0-2.118-0.949-2.118-2.124c0-1.167,0.949-2.116,2.118-2.116h57.115
		c1.174,0,2.117,0.949,2.117,2.116C738.033,375.61,737.089,376.559,735.916,376.559z"/>
	<path fill="#272525" d="M735.916,414.667H678.8c-1.168,0-2.118-0.948-2.118-2.115c0-1.168,0.949-2.116,2.118-2.116h57.115
		c1.174,0,2.117,0.948,2.117,2.116C738.033,413.719,737.089,414.667,735.916,414.667z"/>
	<path fill="#272525" d="M791.025,395.61H678.8c-1.168,0-2.118-0.941-2.118-2.116c0-1.168,0.949-2.116,2.118-2.116h112.225
		c1.168,0,2.118,0.948,2.118,2.116C793.143,394.668,792.194,395.61,791.025,395.61z"/>
</g>
<g>
	<path fill="#272525" d="M262.155,316.441H114.22c-1.166,0-2.115,0.949-2.115,2.116c0,1.171,0.949,2.119,2.115,2.119h69.163v14.258
		h-53.468c-1.174,0-2.124,0.948-2.124,2.12v76.219c0,1.167,0.949,2.116,2.124,2.116l51.12,0.273l-35.379,34.242
		c-0.848,0.814-0.862,2.156-0.052,2.996c0.416,0.431,0.969,0.642,1.518,0.642c0.531,0,1.064-0.197,1.474-0.591l34.788-33.669v32.145
		c0,1.167,0.949,2.116,2.118,2.116c1.174,0,2.124-0.948,2.124-2.116v-32.214l35.593,33.75c0.845,0.806,2.187,0.77,2.992-0.077
		c0.808-0.85,0.773-2.189-0.075-2.995l-36.103-34.228l44.669-0.266h10.611c1.166,0,2.124-0.949,2.124-2.116v-76.226
		c0-1.171-0.958-2.12-2.124-2.12h-57.686v-14.258h74.532c1.16,0,2.109-0.948,2.109-2.119
		C264.265,317.39,263.315,316.441,262.155,316.441z M243.192,339.169v71.994h-7.369c0,0-0.023-0.007-0.038-0.007h-7.974
		L208.82,374.2c-0.314-0.605-0.892-1.025-1.569-1.127c-0.672-0.105-1.35,0.121-1.823,0.605l-17.556,17.8l-36.337-36.599
		c-0.831-0.824-2.175-0.832-3-0.007c-0.831,0.825-0.831,2.167-0.006,2.992l37.846,38.117c0.401,0.401,0.935,0.624,1.503,0.624h0.009
		c0.563,0,1.102-0.23,1.503-0.631l17.001-17.238l16.655,32.422h-91.014v-71.987H243.192z"/>
</g>
<g>
	<path fill="#272525" d="M454.189,375.756c-20.671,0-37.482-16.812-37.482-37.482c0-20.664,16.812-37.475,37.482-37.475
		c20.663,0,37.479,16.811,37.479,37.475C491.669,358.945,474.852,375.756,454.189,375.756z M454.189,305.031
		c-18.337,0-33.25,14.915-33.25,33.243c0,18.336,14.913,33.25,33.25,33.25c18.334,0,33.242-14.914,33.242-33.25
		C487.431,319.945,472.524,305.031,454.189,305.031z"/>
	<path fill="#272525" d="M473.707,453.544h-64.619c-1.166,0-2.115-0.941-2.115-2.116v-31.784c0-26.53,21.583-48.12,48.12-48.12
		c18.279,0,34.753,10.149,42.993,26.479c0.525,1.051,0.107,2.32-0.943,2.846c-1.05,0.525-2.32,0.109-2.839-0.934
		c-7.513-14.899-22.538-24.158-39.21-24.158c-24.203,0-43.887,19.693-43.887,43.888v29.667h62.501c1.168,0,2.115,0.949,2.115,2.116
		C475.822,452.603,474.875,453.544,473.707,453.544z"/>
	<g>
		<path fill="#272525" d="M519.761,434.879h-37.327c-1.168,0-2.118-0.949-2.118-2.116c0-1.167,0.949-2.116,2.118-2.116h37.327
			c1.168,0,2.118,0.949,2.118,2.116C521.878,433.931,520.929,434.879,519.761,434.879z"/>
		<path fill="#272525" d="M501.097,453.544c-1.168,0-2.115-0.941-2.115-2.116v-37.329c0-1.168,0.946-2.116,2.115-2.116
			s2.115,0.948,2.115,2.116v37.329C503.212,452.603,502.266,453.544,501.097,453.544z"/>
	</g>
</g>
<text transform="matrix(1 0 0 1 112.4482 257.8774)" font-family="'Montserrat-Medium'" font-size="48.2068">Iconografia</text>
<text transform="matrix(1 0 0 1 98.0698 496.707)" font-family="'Montserrat-Medium'" font-size="35.604">Relatórios</text>
<text transform="matrix(1 0 0 1 372.4482 496.707)" font-family="'Montserrat-Medium'" font-size="35.604">Cadastrar</text>
<text transform="matrix(1 0 0 1 653.0156 496.707)" font-family="'Montserrat-Medium'" font-size="35.604">Nota Fiscal</text>
</svg>
