<?xml version="1.0" encoding="utf-8"?>
<!-- Generator: Adobe Illustrator 16.0.0, SVG Export Plug-In . SVG Version: 6.00 Build 0)  -->
<!DOCTYPE svg PUBLIC "-//W3C//DTD SVG 1.1//EN" "http://www.w3.org/Graphics/SVG/1.1/DTD/svg11.dtd">
<svg version="1.1" id="Layer_1" xmlns="http://www.w3.org/2000/svg" xmlns:xlink="http://www.w3.org/1999/xlink" x="0px" y="0px"
	 width="1920px" height="1920px" viewBox="0 0 1920 1920" enable-background="new 0 0 1920 1920" xml:space="preserve">
<g display="none">
	<g display="inline">
		<path fill="#24B49A" d="M1545.461,1577.738H366.827c-9.16,0-16.563-7.402-16.563-16.56V397.227c0-9.1,7.402-16.494,16.563-16.494
			h1178.634c9.154,0,16.557,7.395,16.557,16.494v1163.952C1562.018,1570.336,1554.615,1577.738,1545.461,1577.738z
			 M383.313,1544.677h1145.631V413.729H383.313V1544.677z"/>
	</g>
	<path display="inline" fill="#24B49A" d="M956.172,688.259h-445.38c-9.116,0-16.519-7.398-16.519-16.498
		c0-9.161,7.402-16.498,16.519-16.498h445.38c9.152,0,16.509,7.337,16.509,16.498C972.681,680.86,965.324,688.259,956.172,688.259z"
		/>
	<path display="inline" fill="#24B49A" d="M1385.909,836.876H510.792c-9.116,0-16.519-7.398-16.519-16.503
		c0-9.157,7.402-16.551,16.519-16.551h875.117c9.107,0,16.51,7.395,16.51,16.551
		C1402.419,829.478,1395.017,836.876,1385.909,836.876z"/>
	<path display="inline" fill="#24B49A" d="M956.172,985.493h-445.38c-9.116,0-16.519-7.398-16.519-16.56
		c0-9.103,7.402-16.501,16.519-16.501h445.38c9.152,0,16.509,7.398,16.509,16.501C972.681,978.095,965.324,985.493,956.172,985.493z
		"/>
	<path display="inline" fill="#24B49A" d="M956.172,1282.663h-445.38c-9.116,0-16.519-7.395-16.519-16.495
		c0-9.108,7.402-16.501,16.519-16.501h445.38c9.152,0,16.509,7.394,16.509,16.501
		C972.681,1275.269,965.324,1282.663,956.172,1282.663z"/>
	<path display="inline" fill="#24B49A" d="M1385.909,1134.053H510.792c-9.116,0-16.519-7.341-16.519-16.502
		c0-9.108,7.402-16.502,16.519-16.502h875.117c9.107,0,16.51,7.394,16.51,16.502
		C1402.419,1126.712,1395.017,1134.053,1385.909,1134.053z"/>
</g>
<g display="none">
	<path display="inline" fill="#24B49A" d="M1636.993,332.601H283.052c-10.662,0-19.35,8.683-19.35,19.368
		c0,10.716,8.688,19.395,19.35,19.395h632.997v130.491H426.689c-10.741,0-19.431,8.678-19.431,19.399v697.573
		c0,10.685,8.689,19.368,19.431,19.368l467.864,2.502l-323.806,313.393c-7.757,7.45-7.884,19.735-0.464,27.417
		c3.797,3.94,8.865,5.872,13.889,5.872c4.854,0,9.742-1.802,13.486-5.408l318.39-308.149v294.193
		c0,10.686,8.687,19.364,19.376,19.364c10.744,0,19.431-8.679,19.431-19.364v-294.828l325.764,308.887
		c7.731,7.378,20.003,7.043,27.375-0.701c7.393-7.78,7.071-20.033-0.688-27.412L976.88,1240.696l408.828-2.435h97.11
		c10.671,0,19.439-8.684,19.439-19.369v-697.64c0-10.721-8.769-19.399-19.439-19.399H954.855V371.364h682.138
		c10.617,0,19.305-8.679,19.305-19.395C1656.298,341.284,1647.61,332.601,1636.993,332.601z M1463.439,540.618v658.907h-67.434
		c0,0-0.215-0.063-0.349-0.063h-72.978l-173.821-338.235c-2.878-5.542-8.168-9.385-14.371-10.319
		c-6.15-0.965-12.353,1.104-16.679,5.542l-160.681,162.908L624.571,684.395c-7.615-7.543-19.913-7.616-27.467-0.067
		c-7.604,7.548-7.604,19.833-0.052,27.381l346.371,348.853c3.675,3.673,8.554,5.711,13.756,5.711h0.091
		c5.147,0,10.08-2.104,13.746-5.778l155.605-157.769l152.434,296.737H446.067V540.618H1463.439z"/>
</g>
<g display="none">
	<path display="inline" fill="#24B49A" d="M959.955,1644.707c-361.724,0-655.992-294.361-655.992-656.115
		c0-361.689,294.269-655.991,655.992-655.991c361.78,0,656.083,294.302,656.083,655.991
		C1616.038,1350.346,1321.735,1644.707,959.955,1644.707z M959.955,368.201c-342.082,0-620.391,278.342-620.391,620.391
		c0,342.114,278.309,620.454,620.391,620.454c342.174,0,620.455-278.34,620.455-620.454
		C1580.41,646.543,1302.129,368.201,959.955,368.201z"/>
	<path display="inline" fill="#24B49A" d="M959.955,1386.435c-9.821,0-17.802-7.979-17.802-17.799V617.573
		c0-9.883,7.98-17.798,17.802-17.798c9.878,0,17.86,7.915,17.86,17.798v751.063C977.815,1378.455,969.833,1386.435,959.955,1386.435
		z"/>
	<path display="inline" fill="#24B49A" d="M1335.519,1010.873H584.455c-9.821,0-17.802-7.978-17.802-17.798
		s7.98-17.801,17.802-17.801h751.063c9.82,0,17.795,7.981,17.795,17.801S1345.339,1010.873,1335.519,1010.873z"/>
</g>
<g>
	<g>
		<path fill="#24B49A" d="M958.661,1571.882c-327.123,0-593.254-266.129-593.254-593.252s266.131-593.197,593.254-593.197
			s593.254,266.073,593.254,593.197S1285.784,1571.882,958.661,1571.882z M958.661,417.625
			c-309.363,0-561.005,251.642-561.005,561.005c0,309.363,251.642,561.061,561.005,561.061s561.005-251.698,561.005-561.061
			C1519.666,669.266,1268.024,417.625,958.661,417.625z"/>
	</g>
	<polygon fill="#24B49A" points="1385.574,1367.138 942.563,986.066 942.563,401.529 974.755,401.529 974.755,971.247 
		1406.611,1342.774 	"/>
	<rect x="958.661" y="962.536" fill="#24B49A" width="577.099" height="32.19"/>
</g>
</svg>
